%TF.GenerationSoftware,KiCad,Pcbnew,7.0.2*%
%TF.CreationDate,2023-05-16T00:14:24-03:00*%
%TF.ProjectId,fullWirelessComTractian,66756c6c-5769-4726-956c-657373436f6d,rev?*%
%TF.SameCoordinates,Original*%
%TF.FileFunction,Copper,L3,Inr*%
%TF.FilePolarity,Positive*%
%FSLAX46Y46*%
G04 Gerber Fmt 4.6, Leading zero omitted, Abs format (unit mm)*
G04 Created by KiCad (PCBNEW 7.0.2) date 2023-05-16 00:14:24*
%MOMM*%
%LPD*%
G01*
G04 APERTURE LIST*
%TA.AperFunction,ComponentPad*%
%ADD10R,0.900000X0.500000*%
%TD*%
%TA.AperFunction,ComponentPad*%
%ADD11C,3.800000*%
%TD*%
%TA.AperFunction,ComponentPad*%
%ADD12R,2.000000X2.000000*%
%TD*%
%TA.AperFunction,ComponentPad*%
%ADD13C,2.000000*%
%TD*%
%TA.AperFunction,ViaPad*%
%ADD14C,0.800000*%
%TD*%
%TA.AperFunction,Conductor*%
%ADD15C,0.508000*%
%TD*%
G04 APERTURE END LIST*
D10*
%TO.N,GND*%
%TO.C,ANT1*%
X159870000Y-92185000D03*
%TD*%
D11*
%TO.N,GND*%
%TO.C,REF\u002A\u002A*%
X178490000Y-99180000D03*
%TD*%
%TO.N,GND*%
%TO.C,REF\u002A\u002A*%
X131400000Y-96210000D03*
%TD*%
%TO.N,GND*%
%TO.C,REF\u002A\u002A*%
X133790000Y-115350000D03*
%TD*%
D12*
%TO.N,Net-(BT1-+)*%
%TO.C,BT1*%
X177180000Y-125230000D03*
D13*
%TO.N,GND*%
X132480000Y-125230000D03*
%TD*%
D14*
%TO.N,GND*%
X133760000Y-101330000D03*
X150900000Y-117760000D03*
X161400000Y-95690000D03*
X167060000Y-95860000D03*
X138140000Y-97000000D03*
X129160000Y-106660000D03*
X174510000Y-104250000D03*
X160210000Y-93630000D03*
X174570000Y-93630000D03*
X160780000Y-97740000D03*
X165380000Y-111310000D03*
X150820000Y-93640000D03*
X159220000Y-117700000D03*
X167180000Y-117560000D03*
X151780000Y-104830000D03*
X148270000Y-93600000D03*
X151410000Y-95310000D03*
X130850000Y-101220000D03*
X137540000Y-114040000D03*
X144060000Y-115520000D03*
X130690000Y-104910000D03*
X162900000Y-93630000D03*
X151780000Y-103740000D03*
X171490000Y-93650000D03*
X143720000Y-113070000D03*
X168610000Y-93690000D03*
X151790000Y-105910000D03*
X155020000Y-117700000D03*
X130140000Y-115740000D03*
X177330000Y-102610000D03*
X143410000Y-101020000D03*
X140650000Y-96970000D03*
X138350000Y-116800000D03*
X147050000Y-115540000D03*
X150640000Y-103730000D03*
X163380000Y-102360000D03*
X177380000Y-93620000D03*
X145380000Y-93500000D03*
X130570000Y-99000000D03*
X180170000Y-103420000D03*
X148940000Y-95310000D03*
X163170000Y-97870000D03*
X140670000Y-93530000D03*
X172960000Y-95870000D03*
X129160000Y-110090000D03*
X141430000Y-95380000D03*
X169900000Y-95860000D03*
X156953419Y-102219078D03*
X146850000Y-95270000D03*
X138160000Y-93560000D03*
X147250000Y-117730000D03*
X151560000Y-99660000D03*
X172980000Y-106090000D03*
X160870000Y-109300000D03*
X155400000Y-93680000D03*
X152910000Y-104800000D03*
X144770000Y-102570000D03*
X135180000Y-96510000D03*
X145360000Y-96940000D03*
X141680000Y-100010000D03*
X172690000Y-108690000D03*
X141270000Y-116490000D03*
X162250000Y-99980000D03*
X155680000Y-105759500D03*
X165730000Y-93650000D03*
X141790000Y-102460000D03*
X152910000Y-103710000D03*
X145470000Y-100100000D03*
X143940000Y-95350000D03*
X129330000Y-112730000D03*
X175160000Y-100260000D03*
X129410000Y-103070000D03*
X147690000Y-98800000D03*
X175770000Y-95820000D03*
X139230000Y-95380000D03*
X177580000Y-108010000D03*
X177020000Y-106060000D03*
X133740000Y-98360000D03*
X136720000Y-95410000D03*
X150650000Y-105900000D03*
X169820000Y-105760000D03*
X135460000Y-93590000D03*
X145280000Y-111170000D03*
X163930000Y-95690000D03*
X150640000Y-104820000D03*
X153200000Y-93730000D03*
X154480000Y-95320000D03*
X131700000Y-111420000D03*
X130940000Y-108390000D03*
X142850000Y-96970000D03*
X164070000Y-117580000D03*
X142870000Y-93530000D03*
X132290000Y-93560000D03*
X158740000Y-98790000D03*
X174370000Y-107680000D03*
X141080000Y-114100000D03*
X164090000Y-111320000D03*
X152920000Y-105880000D03*
X178750000Y-95740000D03*
%TO.N,Net-(U1-CHIP_PU)*%
X149500000Y-101290000D03*
X156110000Y-100960000D03*
X166900000Y-111250000D03*
%TO.N,Net-(C8-Pad1)*%
X154560000Y-99680000D03*
X154920000Y-96150000D03*
%TO.N,VDD33*%
X155880000Y-110300000D03*
X155370000Y-104389500D03*
X175150000Y-101880000D03*
X170230000Y-115120000D03*
X148604469Y-109631825D03*
X171400000Y-102820000D03*
X146660000Y-104990000D03*
X179160000Y-108560000D03*
X140800000Y-107610000D03*
X151780000Y-97420000D03*
X154610000Y-100970000D03*
X166000000Y-96860000D03*
%TO.N,DMWP*%
X146535480Y-108485480D03*
X133130000Y-103510000D03*
%TO.N,PMHD*%
X152360000Y-109410000D03*
X149970000Y-108780000D03*
%TO.N,Net-(U6-V_{OUT})*%
X164380000Y-106550000D03*
X149200000Y-97990000D03*
%TD*%
D15*
%TO.N,VDD33*%
X170130000Y-96860000D02*
X166000000Y-96860000D01*
X171400000Y-102820000D02*
X171400000Y-109660000D01*
X179160000Y-108560000D02*
X179100000Y-108560000D01*
X148604469Y-109631825D02*
X147890000Y-108917356D01*
X172540000Y-115120000D02*
X170230000Y-115120000D01*
X150171825Y-109631825D02*
X148604469Y-109631825D01*
X171400000Y-109660000D02*
X170230000Y-110830000D01*
X156226000Y-103533500D02*
X156226000Y-102626000D01*
X179160000Y-108560000D02*
X179160000Y-105890000D01*
X146660000Y-104990000D02*
X143420000Y-104990000D01*
X175150000Y-101880000D02*
X170130000Y-96860000D01*
X150840000Y-110300000D02*
X150171825Y-109631825D01*
X155880000Y-110300000D02*
X150840000Y-110300000D01*
X156226000Y-102626000D02*
X151780000Y-98180000D01*
X151780000Y-98180000D02*
X151780000Y-97420000D01*
X151780000Y-97420000D02*
X151199455Y-97420000D01*
X160700000Y-115120000D02*
X170230000Y-115120000D01*
X155880000Y-110300000D02*
X160700000Y-115120000D01*
X147890000Y-108917356D02*
X147890000Y-106220000D01*
X146660000Y-101959455D02*
X146660000Y-104990000D01*
X155370000Y-104389500D02*
X156226000Y-103533500D01*
X179160000Y-105890000D02*
X175150000Y-101880000D01*
X151199455Y-97420000D02*
X146660000Y-101959455D01*
X179100000Y-108560000D02*
X172540000Y-115120000D01*
X143420000Y-104990000D02*
X140800000Y-107610000D01*
X170230000Y-110830000D02*
X170230000Y-115120000D01*
X147890000Y-106220000D02*
X146660000Y-104990000D01*
%TD*%
M02*
