M48
; DRILL file {KiCad 7.0.2} date Tue May 16 00:14:51 2023
; FORMAT={-:-/ absolute / inch / decimal}
; #@! TF.CreationDate,2023-05-16T00:14:51-03:00
; #@! TF.GenerationSoftware,Kicad,Pcbnew,7.0.2
; #@! TF.FileFunction,Plated,1,4,PTH
FMAT,2
INCH
; #@! TA.AperFunction,Plated,PTH,ComponentDrill
T1C0.0118
; #@! TA.AperFunction,Plated,PTH,ViaDrill
T2C0.0157
; #@! TA.AperFunction,Plated,PTH,ComponentDrill
T3C0.0402
; #@! TA.AperFunction,Plated,PTH,ComponentDrill
T4C0.0866
%
G90
G05
T1
X6.2941Y-3.6293
T2
X5.085Y-4.1992
X5.085Y-4.3343
X5.0917Y-4.4382
X5.0949Y-4.0579
X5.1236Y-4.5567
X5.1406Y-3.8976
X5.1453Y-4.1303
X5.1516Y-3.985
X5.1551Y-4.2673
X5.185Y-4.3866
X5.2083Y-3.6835
X5.2413Y-4.0752
X5.2654Y-3.8724
X5.2661Y-3.9894
X5.322Y-3.7996
X5.3331Y-3.6846
X5.3827Y-3.7563
X5.415Y-4.4898
X5.4386Y-3.8189
X5.4394Y-3.6835
X5.4469Y-4.5984
X5.4815Y-3.7551
X5.5374Y-3.8177
X5.5382Y-3.6823
X5.5433Y-4.2366
X5.5543Y-4.4921
X5.5618Y-4.5862
X5.5681Y-3.7551
X5.578Y-3.9374
X5.5823Y-4.0339
X5.624Y-3.8177
X5.6248Y-3.6823
X5.6461Y-3.9772
X5.6583Y-4.4516
X5.6669Y-3.7539
X5.6717Y-4.548
X5.6996Y-4.0382
X5.7197Y-4.3768
X5.7228Y-3.8165
X5.7236Y-3.6811
X5.7272Y-3.9409
X5.7691Y-4.2711
X5.774Y-4.1335
X5.7815Y-3.7508
X5.7894Y-4.5488
X5.7972Y-4.635
X5.8146Y-3.8898
X5.8374Y-3.685
X5.8506Y-4.3162
X5.8638Y-3.7524
X5.874Y-3.8579
X5.8858Y-3.9878
X5.9043Y-4.2827
X5.9307Y-4.0839
X5.9307Y-4.1268
X5.9311Y-4.1693
X5.9378Y-3.6866
X5.9409Y-4.6362
X5.961Y-3.7524
X5.9669Y-3.9236
X5.9756Y-3.8354
X5.9756Y-4.0843
X5.9756Y-4.1272
X5.976Y-4.1697
X5.9984Y-4.3075
X6.0201Y-4.0831
X6.0201Y-4.126
X6.0205Y-4.1685
X6.0315Y-3.6902
X6.0819Y-3.7528
X6.085Y-3.9244
X6.087Y-3.9752
X6.0992Y-3.7854
X6.1031Y-4.6339
X6.1169Y-4.1098
X6.1181Y-3.6882
X6.1291Y-4.1638
X6.137Y-4.3425
X6.1461Y-3.9748
X6.1793Y-4.0244
X6.2496Y-3.8894
X6.2685Y-4.6339
X6.3075Y-3.6862
X6.3299Y-3.848
X6.3335Y-4.3031
X6.3543Y-3.7673
X6.3878Y-3.9362
X6.4134Y-3.6862
X6.424Y-3.8531
X6.4323Y-4.0299
X6.4539Y-3.7673
X6.4594Y-4.6291
X6.4602Y-4.3827
X6.4717Y-4.1949
X6.511Y-4.3823
X6.5248Y-3.687
X6.5354Y-3.8134
X6.5709Y-4.3799
X6.5772Y-3.774
X6.5819Y-4.6283
X6.6382Y-3.6886
X6.6858Y-4.1638
X6.689Y-3.774
X6.702Y-4.5323
X6.748Y-4.048
X6.7516Y-3.687
X6.7988Y-4.2791
X6.8094Y-3.7744
X6.8102Y-4.1768
X6.865Y-4.2394
X6.8705Y-4.1043
X6.8728Y-3.6862
X6.8957Y-4.011
X6.8961Y-3.9472
X6.9201Y-3.7724
X6.9693Y-4.1756
X6.9815Y-4.0398
X6.9835Y-3.6858
X6.9913Y-4.2524
X7.0374Y-3.7693
X7.0535Y-4.274
X7.0933Y-4.0717
T3
X5.2157Y-4.9303
X6.9756Y-4.9303
T4
X5.1732Y-3.7878
X5.2673Y-4.5413
X7.0272Y-3.9047
T0
M30
