%TF.GenerationSoftware,KiCad,Pcbnew,7.0.2*%
%TF.CreationDate,2023-05-16T00:14:24-03:00*%
%TF.ProjectId,fullWirelessComTractian,66756c6c-5769-4726-956c-657373436f6d,rev?*%
%TF.SameCoordinates,Original*%
%TF.FileFunction,Copper,L4,Bot*%
%TF.FilePolarity,Positive*%
%FSLAX46Y46*%
G04 Gerber Fmt 4.6, Leading zero omitted, Abs format (unit mm)*
G04 Created by KiCad (PCBNEW 7.0.2) date 2023-05-16 00:14:24*
%MOMM*%
%LPD*%
G01*
G04 APERTURE LIST*
%TA.AperFunction,ComponentPad*%
%ADD10R,0.900000X0.500000*%
%TD*%
%TA.AperFunction,ComponentPad*%
%ADD11C,3.800000*%
%TD*%
%TA.AperFunction,ComponentPad*%
%ADD12R,2.000000X2.000000*%
%TD*%
%TA.AperFunction,ComponentPad*%
%ADD13C,2.000000*%
%TD*%
%TA.AperFunction,ViaPad*%
%ADD14C,0.800000*%
%TD*%
%TA.AperFunction,Conductor*%
%ADD15C,0.200000*%
%TD*%
G04 APERTURE END LIST*
D10*
%TO.P,ANT1,2,Shield*%
%TO.N,GND*%
X159870000Y-92185000D03*
%TD*%
D11*
%TO.P,REF\u002A\u002A,1*%
%TO.N,GND*%
X178490000Y-99180000D03*
%TD*%
%TO.P,REF\u002A\u002A,1*%
%TO.N,GND*%
X131400000Y-96210000D03*
%TD*%
%TO.P,REF\u002A\u002A,1*%
%TO.N,GND*%
X133790000Y-115350000D03*
%TD*%
D12*
%TO.P,BT1,1,+*%
%TO.N,Net-(BT1-+)*%
X177180000Y-125230000D03*
D13*
%TO.P,BT1,2,-*%
%TO.N,GND*%
X132480000Y-125230000D03*
%TD*%
D14*
%TO.N,GND*%
X133760000Y-101330000D03*
X150900000Y-117760000D03*
X161400000Y-95690000D03*
X167060000Y-95860000D03*
X138140000Y-97000000D03*
X129160000Y-106660000D03*
X174510000Y-104250000D03*
X160210000Y-93630000D03*
X174570000Y-93630000D03*
X160780000Y-97740000D03*
X165380000Y-111310000D03*
X150820000Y-93640000D03*
X159220000Y-117700000D03*
X167180000Y-117560000D03*
X151780000Y-104830000D03*
X148270000Y-93600000D03*
X151410000Y-95310000D03*
X130850000Y-101220000D03*
X137540000Y-114040000D03*
X144060000Y-115520000D03*
X130690000Y-104910000D03*
X162900000Y-93630000D03*
X151780000Y-103740000D03*
X171490000Y-93650000D03*
X143720000Y-113070000D03*
X168610000Y-93690000D03*
X151790000Y-105910000D03*
X155020000Y-117700000D03*
X130140000Y-115740000D03*
X177330000Y-102610000D03*
X143410000Y-101020000D03*
X140650000Y-96970000D03*
X138350000Y-116800000D03*
X147050000Y-115540000D03*
X150640000Y-103730000D03*
X163380000Y-102360000D03*
X177380000Y-93620000D03*
X145380000Y-93500000D03*
X130570000Y-99000000D03*
X180170000Y-103420000D03*
X148940000Y-95310000D03*
X163170000Y-97870000D03*
X140670000Y-93530000D03*
X172960000Y-95870000D03*
X129160000Y-110090000D03*
X141430000Y-95380000D03*
X169900000Y-95860000D03*
X156953419Y-102219078D03*
X146850000Y-95270000D03*
X138160000Y-93560000D03*
X147250000Y-117730000D03*
X151560000Y-99660000D03*
X172980000Y-106090000D03*
X160870000Y-109300000D03*
X155400000Y-93680000D03*
X152910000Y-104800000D03*
X144770000Y-102570000D03*
X135180000Y-96510000D03*
X145360000Y-96940000D03*
X141680000Y-100010000D03*
X172690000Y-108690000D03*
X141270000Y-116490000D03*
X162250000Y-99980000D03*
X155680000Y-105759500D03*
X165730000Y-93650000D03*
X141790000Y-102460000D03*
X152910000Y-103710000D03*
X145470000Y-100100000D03*
X143940000Y-95350000D03*
X129330000Y-112730000D03*
X175160000Y-100260000D03*
X129410000Y-103070000D03*
X147690000Y-98800000D03*
X175770000Y-95820000D03*
X139230000Y-95380000D03*
X177580000Y-108010000D03*
X177020000Y-106060000D03*
X133740000Y-98360000D03*
X136720000Y-95410000D03*
X150650000Y-105900000D03*
X169820000Y-105760000D03*
X135460000Y-93590000D03*
X145280000Y-111170000D03*
X163930000Y-95690000D03*
X150640000Y-104820000D03*
X153200000Y-93730000D03*
X154480000Y-95320000D03*
X131700000Y-111420000D03*
X130940000Y-108390000D03*
X142850000Y-96970000D03*
X164070000Y-117580000D03*
X142870000Y-93530000D03*
X132290000Y-93560000D03*
X158740000Y-98790000D03*
X174370000Y-107680000D03*
X141080000Y-114100000D03*
X164090000Y-111320000D03*
X152920000Y-105880000D03*
X178750000Y-95740000D03*
%TO.N,Net-(U1-CHIP_PU)*%
X149500000Y-101290000D03*
X156110000Y-100960000D03*
X166900000Y-111250000D03*
%TO.N,Net-(C8-Pad1)*%
X154560000Y-99680000D03*
X154920000Y-96150000D03*
%TO.N,VDD33*%
X155880000Y-110300000D03*
X155370000Y-104389500D03*
X175150000Y-101880000D03*
X170230000Y-115120000D03*
X148604469Y-109631825D03*
X171400000Y-102820000D03*
X146660000Y-104990000D03*
X179160000Y-108560000D03*
X140800000Y-107610000D03*
X151780000Y-97420000D03*
X154610000Y-100970000D03*
X166000000Y-96860000D03*
%TO.N,DMWP*%
X146535480Y-108485480D03*
X133130000Y-103510000D03*
%TO.N,PMHD*%
X152360000Y-109410000D03*
X149970000Y-108780000D03*
%TO.N,Net-(U6-V_{OUT})*%
X164380000Y-106550000D03*
X149200000Y-97990000D03*
%TD*%
D15*
%TO.N,Net-(U1-CHIP_PU)*%
X166900000Y-110031666D02*
X166900000Y-111250000D01*
X149500000Y-101290000D02*
X151109078Y-102899078D01*
X158549078Y-102899078D02*
X166900000Y-111250000D01*
X156110000Y-100960000D02*
X157828334Y-100960000D01*
X151109078Y-102899078D02*
X158549078Y-102899078D01*
X157828334Y-100960000D02*
X166900000Y-110031666D01*
%TO.N,Net-(C8-Pad1)*%
X147010000Y-99081666D02*
X147010000Y-98518334D01*
X148268334Y-100340000D02*
X147010000Y-99081666D01*
X149378334Y-96150000D02*
X154920000Y-96150000D01*
X147010000Y-98518334D02*
X149378334Y-96150000D01*
X153900000Y-100340000D02*
X148268334Y-100340000D01*
X154560000Y-99680000D02*
X153900000Y-100340000D01*
%TO.N,DMWP*%
X146535480Y-108485480D02*
X146535480Y-107925480D01*
X142120000Y-103510000D02*
X133130000Y-103510000D01*
X146535480Y-107925480D02*
X142120000Y-103510000D01*
%TO.N,PMHD*%
X151730000Y-108780000D02*
X152360000Y-109410000D01*
X149970000Y-108780000D02*
X151730000Y-108780000D01*
%TO.N,Net-(U6-V_{OUT})*%
X157728334Y-98740000D02*
X164380000Y-105391666D01*
X164380000Y-105391666D02*
X164380000Y-106550000D01*
X149950000Y-98740000D02*
X157728334Y-98740000D01*
X149200000Y-97990000D02*
X149950000Y-98740000D01*
%TD*%
%TA.AperFunction,Conductor*%
%TO.N,GND*%
G36*
X157619540Y-99060185D02*
G01*
X157640182Y-99076819D01*
X164043181Y-105479817D01*
X164076666Y-105541140D01*
X164079500Y-105567498D01*
X164079500Y-105962517D01*
X164059815Y-106029556D01*
X164030986Y-106060893D01*
X163951717Y-106121717D01*
X163855463Y-106247158D01*
X163834220Y-106298445D01*
X163790378Y-106352849D01*
X163724084Y-106374913D01*
X163656385Y-106357633D01*
X163631978Y-106338673D01*
X158089784Y-100796479D01*
X158079831Y-100782645D01*
X158038015Y-100744524D01*
X158033874Y-100740569D01*
X158020444Y-100727139D01*
X158009012Y-100718083D01*
X157989268Y-100700084D01*
X157982802Y-100697579D01*
X157957526Y-100684256D01*
X157951815Y-100680344D01*
X157951814Y-100680343D01*
X157951812Y-100680342D01*
X157925818Y-100674228D01*
X157909421Y-100669151D01*
X157884507Y-100659500D01*
X157877583Y-100659500D01*
X157849193Y-100656206D01*
X157842453Y-100654621D01*
X157842452Y-100654621D01*
X157831091Y-100656206D01*
X157816000Y-100658311D01*
X157798869Y-100659500D01*
X156697482Y-100659500D01*
X156630443Y-100639815D01*
X156599106Y-100610986D01*
X156596519Y-100607615D01*
X156538282Y-100531718D01*
X156425874Y-100445464D01*
X156412840Y-100435463D01*
X156266762Y-100374956D01*
X156110000Y-100354317D01*
X155953237Y-100374956D01*
X155807159Y-100435463D01*
X155681717Y-100531717D01*
X155585463Y-100657159D01*
X155524956Y-100803237D01*
X155504317Y-100960000D01*
X155524956Y-101116762D01*
X155585463Y-101262840D01*
X155681717Y-101388282D01*
X155807159Y-101484535D01*
X155807159Y-101484536D01*
X155953238Y-101545044D01*
X156110000Y-101565682D01*
X156266762Y-101545044D01*
X156412841Y-101484536D01*
X156538282Y-101388282D01*
X156599106Y-101309013D01*
X156655533Y-101267811D01*
X156697482Y-101260500D01*
X157652501Y-101260500D01*
X157719540Y-101280185D01*
X157740182Y-101296819D01*
X166563181Y-110119818D01*
X166596666Y-110181141D01*
X166599500Y-110207499D01*
X166599500Y-110225167D01*
X166579815Y-110292206D01*
X166527011Y-110337961D01*
X166457853Y-110347905D01*
X166394297Y-110318880D01*
X166387819Y-110312848D01*
X158810528Y-102735557D01*
X158800575Y-102721723D01*
X158758759Y-102683602D01*
X158754618Y-102679647D01*
X158741188Y-102666217D01*
X158729756Y-102657161D01*
X158710012Y-102639162D01*
X158703546Y-102636657D01*
X158678270Y-102623334D01*
X158672559Y-102619422D01*
X158672558Y-102619421D01*
X158672556Y-102619420D01*
X158646562Y-102613306D01*
X158630165Y-102608229D01*
X158605251Y-102598578D01*
X158598327Y-102598578D01*
X158569937Y-102595284D01*
X158563197Y-102593699D01*
X158563196Y-102593699D01*
X158551835Y-102595284D01*
X158536744Y-102597389D01*
X158519613Y-102598578D01*
X151284911Y-102598578D01*
X151217872Y-102578893D01*
X151197230Y-102562259D01*
X150127898Y-101492927D01*
X150094413Y-101431604D01*
X150092640Y-101389063D01*
X150105682Y-101290000D01*
X150085044Y-101133238D01*
X150024536Y-100987159D01*
X150024535Y-100987159D01*
X149918344Y-100848766D01*
X149919077Y-100848203D01*
X149888588Y-100806446D01*
X149884434Y-100736700D01*
X149918648Y-100675780D01*
X149980365Y-100643028D01*
X150005278Y-100640500D01*
X153830757Y-100640500D01*
X153847577Y-100643243D01*
X153857762Y-100642772D01*
X153857765Y-100642773D01*
X153904080Y-100640631D01*
X153909805Y-100640500D01*
X153910928Y-100640500D01*
X153977967Y-100660185D01*
X154023722Y-100712989D01*
X154033666Y-100782147D01*
X154025491Y-100811945D01*
X154024956Y-100813238D01*
X154024955Y-100813241D01*
X154004317Y-100970000D01*
X154024956Y-101126762D01*
X154085463Y-101272840D01*
X154181717Y-101398282D01*
X154272597Y-101468016D01*
X154307159Y-101494536D01*
X154453238Y-101555044D01*
X154610000Y-101575682D01*
X154766762Y-101555044D01*
X154912841Y-101494536D01*
X155038282Y-101398282D01*
X155134536Y-101272841D01*
X155195044Y-101126762D01*
X155215682Y-100970000D01*
X155214365Y-100960000D01*
X155199647Y-100848203D01*
X155195044Y-100813238D01*
X155134536Y-100667159D01*
X155126863Y-100657159D01*
X155038282Y-100541717D01*
X154912842Y-100445464D01*
X154873589Y-100429205D01*
X154819186Y-100385363D01*
X154797122Y-100319069D01*
X154814402Y-100251370D01*
X154851615Y-100216722D01*
X154849890Y-100214474D01*
X154988282Y-100108282D01*
X155018604Y-100068765D01*
X155084536Y-99982841D01*
X155145044Y-99836762D01*
X155165682Y-99680000D01*
X155145044Y-99523238D01*
X155084536Y-99377159D01*
X155036831Y-99314988D01*
X154979280Y-99239986D01*
X154954086Y-99174817D01*
X154968124Y-99106372D01*
X155016938Y-99056383D01*
X155077656Y-99040500D01*
X157552501Y-99040500D01*
X157619540Y-99060185D01*
G37*
%TD.AperFunction*%
%TA.AperFunction,Conductor*%
G36*
X178235677Y-92599685D02*
G01*
X178256319Y-92616319D01*
X181333681Y-95693681D01*
X181367166Y-95755004D01*
X181370000Y-95781362D01*
X181370000Y-132996000D01*
X181350315Y-133063039D01*
X181297511Y-133108794D01*
X181246000Y-133120000D01*
X128404000Y-133120000D01*
X128336961Y-133100315D01*
X128291206Y-133047511D01*
X128280000Y-132996000D01*
X128280000Y-125230000D01*
X130974858Y-125230000D01*
X130995386Y-125477732D01*
X131056413Y-125718721D01*
X131156268Y-125946370D01*
X131256563Y-126099882D01*
X131256564Y-126099882D01*
X131988866Y-125367580D01*
X132011318Y-125444040D01*
X132090605Y-125567413D01*
X132201438Y-125663451D01*
X132334839Y-125724373D01*
X132338634Y-125724918D01*
X131609942Y-126453609D01*
X131609942Y-126453610D01*
X131656766Y-126490055D01*
X131875393Y-126608368D01*
X132110506Y-126689083D01*
X132355707Y-126730000D01*
X132604293Y-126730000D01*
X132849493Y-126689083D01*
X133084606Y-126608368D01*
X133303233Y-126490053D01*
X133350056Y-126453609D01*
X133146195Y-126249748D01*
X175979500Y-126249748D01*
X175991132Y-126308230D01*
X176035447Y-126374552D01*
X176101769Y-126418867D01*
X176160251Y-126430500D01*
X176160252Y-126430500D01*
X178199749Y-126430500D01*
X178228989Y-126424683D01*
X178258231Y-126418867D01*
X178324552Y-126374552D01*
X178368867Y-126308231D01*
X178380500Y-126249748D01*
X178380500Y-124210252D01*
X178368867Y-124151769D01*
X178368867Y-124151768D01*
X178324552Y-124085447D01*
X178258230Y-124041132D01*
X178199749Y-124029500D01*
X178199748Y-124029500D01*
X176160252Y-124029500D01*
X176160251Y-124029500D01*
X176101769Y-124041132D01*
X176035447Y-124085447D01*
X175991132Y-124151769D01*
X175979500Y-124210251D01*
X175979500Y-126249748D01*
X133146195Y-126249748D01*
X132621365Y-125724918D01*
X132625161Y-125724373D01*
X132758562Y-125663451D01*
X132869395Y-125567413D01*
X132948682Y-125444040D01*
X132971132Y-125367580D01*
X133703434Y-126099882D01*
X133803730Y-125946369D01*
X133903586Y-125718721D01*
X133964613Y-125477732D01*
X133985141Y-125230000D01*
X133964613Y-124982267D01*
X133903586Y-124741278D01*
X133803730Y-124513630D01*
X133703434Y-124360116D01*
X132971132Y-125092418D01*
X132948682Y-125015960D01*
X132869395Y-124892587D01*
X132758562Y-124796549D01*
X132625161Y-124735627D01*
X132621366Y-124735081D01*
X133350057Y-124006390D01*
X133350056Y-124006388D01*
X133303235Y-123969947D01*
X133084606Y-123851631D01*
X132849493Y-123770916D01*
X132604293Y-123730000D01*
X132355707Y-123730000D01*
X132110506Y-123770916D01*
X131875393Y-123851631D01*
X131656764Y-123969946D01*
X131609942Y-124006388D01*
X131609942Y-124006390D01*
X132338634Y-124735081D01*
X132334839Y-124735627D01*
X132201438Y-124796549D01*
X132090605Y-124892587D01*
X132011318Y-125015960D01*
X131988867Y-125092419D01*
X131256564Y-124360116D01*
X131156266Y-124513634D01*
X131056413Y-124741278D01*
X130995386Y-124982267D01*
X130974858Y-125230000D01*
X128280000Y-125230000D01*
X128280000Y-115353894D01*
X131385500Y-115353894D01*
X131403972Y-115647500D01*
X131404946Y-115655220D01*
X131460073Y-115944206D01*
X131462009Y-115951745D01*
X131552921Y-116231541D01*
X131555781Y-116238765D01*
X131681050Y-116504976D01*
X131684792Y-116511782D01*
X131842430Y-116760181D01*
X131847006Y-116766479D01*
X131925312Y-116861134D01*
X132854211Y-115932235D01*
X132954894Y-116073624D01*
X133106932Y-116218592D01*
X133209222Y-116284329D01*
X132276564Y-117216986D01*
X132498320Y-117378102D01*
X132504891Y-117382272D01*
X132762694Y-117524000D01*
X132769733Y-117527313D01*
X133043270Y-117635613D01*
X133050665Y-117638016D01*
X133335625Y-117711182D01*
X133343256Y-117712637D01*
X133635140Y-117749511D01*
X133642899Y-117750000D01*
X133937101Y-117750000D01*
X133944859Y-117749511D01*
X134236743Y-117712637D01*
X134244374Y-117711182D01*
X134529334Y-117638016D01*
X134536729Y-117635613D01*
X134810266Y-117527313D01*
X134817305Y-117524000D01*
X135075108Y-117382272D01*
X135081678Y-117378102D01*
X135303433Y-117216986D01*
X135303434Y-117216986D01*
X134373306Y-116286859D01*
X134387410Y-116279589D01*
X134552540Y-116149729D01*
X134690110Y-115990965D01*
X134724665Y-115931112D01*
X135654686Y-116861133D01*
X135732997Y-116766474D01*
X135737568Y-116760182D01*
X135895207Y-116511782D01*
X135898949Y-116504976D01*
X136024218Y-116238765D01*
X136027078Y-116231541D01*
X136117990Y-115951745D01*
X136119926Y-115944206D01*
X136175053Y-115655220D01*
X136176027Y-115647500D01*
X136194500Y-115353894D01*
X136194500Y-115346105D01*
X136180274Y-115120000D01*
X169624317Y-115120000D01*
X169644956Y-115276762D01*
X169705463Y-115422840D01*
X169801717Y-115548282D01*
X169927159Y-115644535D01*
X169927159Y-115644536D01*
X170073238Y-115705044D01*
X170209361Y-115722964D01*
X170229999Y-115725682D01*
X170229999Y-115725681D01*
X170230000Y-115725682D01*
X170386762Y-115705044D01*
X170532841Y-115644536D01*
X170658282Y-115548282D01*
X170754536Y-115422841D01*
X170815044Y-115276762D01*
X170835682Y-115120000D01*
X170815044Y-114963238D01*
X170754536Y-114817159D01*
X170739450Y-114797498D01*
X170658282Y-114691717D01*
X170532840Y-114595463D01*
X170386762Y-114534956D01*
X170230000Y-114514317D01*
X170073237Y-114534956D01*
X169927159Y-114595463D01*
X169801717Y-114691717D01*
X169705463Y-114817159D01*
X169644956Y-114963237D01*
X169624317Y-115120000D01*
X136180274Y-115120000D01*
X136176027Y-115052499D01*
X136175053Y-115044779D01*
X136119926Y-114755793D01*
X136117990Y-114748254D01*
X136027078Y-114468458D01*
X136024218Y-114461234D01*
X135898949Y-114195023D01*
X135895207Y-114188217D01*
X135737569Y-113939818D01*
X135732993Y-113933520D01*
X135654686Y-113838864D01*
X134725787Y-114767763D01*
X134625106Y-114626376D01*
X134473068Y-114481408D01*
X134370777Y-114415669D01*
X135303434Y-113483012D01*
X135081679Y-113321897D01*
X135075108Y-113317727D01*
X134817305Y-113175999D01*
X134810266Y-113172686D01*
X134536729Y-113064386D01*
X134529334Y-113061983D01*
X134244374Y-112988817D01*
X134236743Y-112987362D01*
X133944859Y-112950488D01*
X133937101Y-112950000D01*
X133642899Y-112950000D01*
X133635140Y-112950488D01*
X133343256Y-112987362D01*
X133335625Y-112988817D01*
X133050665Y-113061983D01*
X133043270Y-113064386D01*
X132769733Y-113172686D01*
X132762694Y-113175999D01*
X132504899Y-113317723D01*
X132498309Y-113321905D01*
X132276565Y-113483011D01*
X132276564Y-113483012D01*
X133206693Y-114413140D01*
X133192590Y-114420411D01*
X133027460Y-114550271D01*
X132889890Y-114709035D01*
X132855334Y-114768886D01*
X131925312Y-113838864D01*
X131846995Y-113933534D01*
X131842434Y-113939812D01*
X131684792Y-114188217D01*
X131681050Y-114195023D01*
X131555781Y-114461234D01*
X131552921Y-114468458D01*
X131462009Y-114748254D01*
X131460073Y-114755793D01*
X131404946Y-115044779D01*
X131403972Y-115052499D01*
X131385500Y-115346105D01*
X131385500Y-115353894D01*
X128280000Y-115353894D01*
X128280000Y-110300000D01*
X155274317Y-110300000D01*
X155294956Y-110456762D01*
X155355463Y-110602840D01*
X155451717Y-110728282D01*
X155577158Y-110824536D01*
X155577159Y-110824536D01*
X155723238Y-110885044D01*
X155880000Y-110905682D01*
X156036762Y-110885044D01*
X156182841Y-110824536D01*
X156308282Y-110728282D01*
X156404536Y-110602841D01*
X156465044Y-110456762D01*
X156485682Y-110300000D01*
X156465044Y-110143238D01*
X156404536Y-109997159D01*
X156397774Y-109988346D01*
X156308282Y-109871717D01*
X156182840Y-109775463D01*
X156036762Y-109714956D01*
X155879999Y-109694317D01*
X155723237Y-109714956D01*
X155577159Y-109775463D01*
X155451717Y-109871717D01*
X155355463Y-109997159D01*
X155294956Y-110143237D01*
X155274317Y-110300000D01*
X128280000Y-110300000D01*
X128280000Y-109631824D01*
X147998786Y-109631824D01*
X148019425Y-109788587D01*
X148079932Y-109934665D01*
X148176186Y-110060107D01*
X148254004Y-110119818D01*
X148301628Y-110156361D01*
X148447707Y-110216869D01*
X148604469Y-110237507D01*
X148761231Y-110216869D01*
X148907310Y-110156361D01*
X149032751Y-110060107D01*
X149129005Y-109934666D01*
X149189513Y-109788587D01*
X149210151Y-109631825D01*
X149189513Y-109475063D01*
X149129005Y-109328984D01*
X149115159Y-109310939D01*
X149032751Y-109203542D01*
X148907309Y-109107288D01*
X148761231Y-109046781D01*
X148604469Y-109026142D01*
X148447706Y-109046781D01*
X148301628Y-109107288D01*
X148176186Y-109203542D01*
X148079932Y-109328984D01*
X148019425Y-109475062D01*
X147998786Y-109631824D01*
X128280000Y-109631824D01*
X128280000Y-107610000D01*
X140194317Y-107610000D01*
X140214956Y-107766762D01*
X140275463Y-107912840D01*
X140371717Y-108038282D01*
X140497159Y-108134536D01*
X140643238Y-108195044D01*
X140800000Y-108215682D01*
X140956762Y-108195044D01*
X141102841Y-108134536D01*
X141228282Y-108038282D01*
X141324536Y-107912841D01*
X141385044Y-107766762D01*
X141405682Y-107610000D01*
X141385044Y-107453238D01*
X141324536Y-107307159D01*
X141270470Y-107236698D01*
X141228282Y-107181717D01*
X141102840Y-107085463D01*
X140956762Y-107024956D01*
X140800000Y-107004317D01*
X140643237Y-107024956D01*
X140497159Y-107085463D01*
X140371717Y-107181717D01*
X140275463Y-107307159D01*
X140214956Y-107453237D01*
X140194317Y-107610000D01*
X128280000Y-107610000D01*
X128280000Y-103509999D01*
X132524317Y-103509999D01*
X132544956Y-103666762D01*
X132605463Y-103812840D01*
X132701717Y-103938282D01*
X132827159Y-104034536D01*
X132973238Y-104095044D01*
X133130000Y-104115682D01*
X133286762Y-104095044D01*
X133432841Y-104034536D01*
X133558282Y-103938282D01*
X133619106Y-103859013D01*
X133675533Y-103817811D01*
X133717482Y-103810500D01*
X141944167Y-103810500D01*
X142011206Y-103830185D01*
X142031848Y-103846819D01*
X146088929Y-107903900D01*
X146122414Y-107965223D01*
X146117430Y-108034915D01*
X146099624Y-108067067D01*
X146010943Y-108182639D01*
X145950436Y-108328717D01*
X145929797Y-108485480D01*
X145950436Y-108642242D01*
X146010943Y-108788320D01*
X146107197Y-108913762D01*
X146232638Y-109010016D01*
X146232639Y-109010016D01*
X146378718Y-109070524D01*
X146535480Y-109091162D01*
X146692242Y-109070524D01*
X146838321Y-109010016D01*
X146963762Y-108913762D01*
X147060016Y-108788321D01*
X147063463Y-108780000D01*
X149364317Y-108780000D01*
X149384956Y-108936762D01*
X149445463Y-109082840D01*
X149541717Y-109208282D01*
X149667158Y-109304536D01*
X149667159Y-109304536D01*
X149813238Y-109365044D01*
X149949360Y-109382964D01*
X149969999Y-109385682D01*
X149969999Y-109385681D01*
X149970000Y-109385682D01*
X150126762Y-109365044D01*
X150272841Y-109304536D01*
X150398282Y-109208282D01*
X150459106Y-109129013D01*
X150515533Y-109087811D01*
X150557482Y-109080500D01*
X151554167Y-109080500D01*
X151621206Y-109100185D01*
X151641842Y-109116813D01*
X151732102Y-109207074D01*
X151765586Y-109268397D01*
X151767359Y-109310939D01*
X151754317Y-109409999D01*
X151774956Y-109566762D01*
X151835463Y-109712840D01*
X151931717Y-109838282D01*
X152039821Y-109921232D01*
X152057159Y-109934536D01*
X152203238Y-109995044D01*
X152339360Y-110012964D01*
X152359999Y-110015682D01*
X152359999Y-110015681D01*
X152360000Y-110015682D01*
X152516762Y-109995044D01*
X152662841Y-109934536D01*
X152788282Y-109838282D01*
X152884536Y-109712841D01*
X152945044Y-109566762D01*
X152965682Y-109410000D01*
X152945044Y-109253238D01*
X152884536Y-109107159D01*
X152865876Y-109082841D01*
X152788282Y-108981717D01*
X152662840Y-108885463D01*
X152516762Y-108824956D01*
X152359999Y-108804317D01*
X152260938Y-108817359D01*
X152191902Y-108806593D01*
X152157072Y-108782101D01*
X151991450Y-108616479D01*
X151981497Y-108602645D01*
X151939681Y-108564524D01*
X151935540Y-108560569D01*
X151922110Y-108547139D01*
X151910678Y-108538083D01*
X151890934Y-108520084D01*
X151884468Y-108517579D01*
X151859192Y-108504256D01*
X151853481Y-108500344D01*
X151853480Y-108500343D01*
X151853478Y-108500342D01*
X151827484Y-108494228D01*
X151811087Y-108489151D01*
X151786173Y-108479500D01*
X151779249Y-108479500D01*
X151750859Y-108476206D01*
X151744119Y-108474621D01*
X151744118Y-108474621D01*
X151732757Y-108476206D01*
X151717666Y-108478311D01*
X151700535Y-108479500D01*
X150557482Y-108479500D01*
X150490443Y-108459815D01*
X150459106Y-108430986D01*
X150437814Y-108403238D01*
X150398282Y-108351718D01*
X150368307Y-108328717D01*
X150272840Y-108255463D01*
X150126762Y-108194956D01*
X149970000Y-108174317D01*
X149813237Y-108194956D01*
X149667159Y-108255463D01*
X149541717Y-108351717D01*
X149445463Y-108477159D01*
X149384956Y-108623237D01*
X149364317Y-108780000D01*
X147063463Y-108780000D01*
X147120524Y-108642242D01*
X147141162Y-108485480D01*
X147120524Y-108328718D01*
X147060016Y-108182639D01*
X147053630Y-108174317D01*
X146963762Y-108057197D01*
X146884494Y-107996373D01*
X146843291Y-107939945D01*
X146835980Y-107897997D01*
X146835980Y-107896657D01*
X146834297Y-107882160D01*
X146833065Y-107855489D01*
X146830266Y-107849151D01*
X146821812Y-107821847D01*
X146820541Y-107815048D01*
X146820541Y-107815047D01*
X146806477Y-107792333D01*
X146798474Y-107777149D01*
X146793888Y-107766762D01*
X146787686Y-107752715D01*
X146782790Y-107747819D01*
X146765043Y-107725413D01*
X146761399Y-107719528D01*
X146740082Y-107703430D01*
X146727128Y-107692157D01*
X144024971Y-104990000D01*
X146054317Y-104990000D01*
X146074956Y-105146762D01*
X146135463Y-105292840D01*
X146231717Y-105418282D01*
X146287273Y-105460911D01*
X146357159Y-105514536D01*
X146503238Y-105575044D01*
X146660000Y-105595682D01*
X146816762Y-105575044D01*
X146962841Y-105514536D01*
X147088282Y-105418282D01*
X147184536Y-105292841D01*
X147245044Y-105146762D01*
X147265682Y-104990000D01*
X147245044Y-104833238D01*
X147184536Y-104687159D01*
X147184536Y-104687158D01*
X147088282Y-104561717D01*
X146962840Y-104465463D01*
X146816762Y-104404956D01*
X146699367Y-104389500D01*
X154764317Y-104389500D01*
X154784956Y-104546262D01*
X154845463Y-104692340D01*
X154941717Y-104817782D01*
X155067159Y-104914036D01*
X155213238Y-104974544D01*
X155370000Y-104995182D01*
X155526762Y-104974544D01*
X155672841Y-104914036D01*
X155798282Y-104817782D01*
X155894536Y-104692341D01*
X155955044Y-104546262D01*
X155975682Y-104389500D01*
X155955044Y-104232738D01*
X155894536Y-104086659D01*
X155854541Y-104034536D01*
X155798282Y-103961217D01*
X155672840Y-103864963D01*
X155526762Y-103804456D01*
X155370000Y-103783817D01*
X155213237Y-103804456D01*
X155067159Y-103864963D01*
X154941717Y-103961217D01*
X154845463Y-104086659D01*
X154784956Y-104232737D01*
X154764317Y-104389500D01*
X146699367Y-104389500D01*
X146660000Y-104384317D01*
X146503237Y-104404956D01*
X146357159Y-104465463D01*
X146231717Y-104561717D01*
X146135463Y-104687159D01*
X146074956Y-104833237D01*
X146054317Y-104990000D01*
X144024971Y-104990000D01*
X142381450Y-103346479D01*
X142371497Y-103332645D01*
X142329681Y-103294524D01*
X142325540Y-103290569D01*
X142312110Y-103277139D01*
X142300678Y-103268083D01*
X142280934Y-103250084D01*
X142274468Y-103247579D01*
X142249192Y-103234256D01*
X142243481Y-103230344D01*
X142243480Y-103230343D01*
X142243478Y-103230342D01*
X142217484Y-103224228D01*
X142201087Y-103219151D01*
X142176173Y-103209500D01*
X142169249Y-103209500D01*
X142140859Y-103206206D01*
X142134119Y-103204621D01*
X142134118Y-103204621D01*
X142122757Y-103206206D01*
X142107666Y-103208311D01*
X142090535Y-103209500D01*
X133717482Y-103209500D01*
X133650443Y-103189815D01*
X133619106Y-103160986D01*
X133617577Y-103158994D01*
X133558282Y-103081718D01*
X133551399Y-103076436D01*
X133432840Y-102985463D01*
X133286762Y-102924956D01*
X133130000Y-102904317D01*
X132973237Y-102924956D01*
X132827159Y-102985463D01*
X132701717Y-103081717D01*
X132605463Y-103207159D01*
X132544956Y-103353237D01*
X132524317Y-103509999D01*
X128280000Y-103509999D01*
X128280000Y-95901361D01*
X128299685Y-95834322D01*
X128316314Y-95813685D01*
X128980708Y-95149291D01*
X129042029Y-95115808D01*
X129111721Y-95120792D01*
X129167654Y-95162664D01*
X129192071Y-95228128D01*
X129180586Y-95289769D01*
X129165786Y-95321220D01*
X129162921Y-95328458D01*
X129072009Y-95608254D01*
X129070073Y-95615793D01*
X129014946Y-95904779D01*
X129013972Y-95912499D01*
X128995500Y-96206105D01*
X128995500Y-96213894D01*
X129013972Y-96507500D01*
X129014946Y-96515220D01*
X129070073Y-96804206D01*
X129072009Y-96811745D01*
X129162921Y-97091541D01*
X129165781Y-97098765D01*
X129291050Y-97364976D01*
X129294792Y-97371782D01*
X129452430Y-97620181D01*
X129457006Y-97626479D01*
X129535312Y-97721134D01*
X130464210Y-96792235D01*
X130564894Y-96933624D01*
X130716932Y-97078592D01*
X130819222Y-97144329D01*
X129886564Y-98076986D01*
X130108320Y-98238102D01*
X130114891Y-98242272D01*
X130372694Y-98384000D01*
X130379733Y-98387313D01*
X130653270Y-98495613D01*
X130660665Y-98498016D01*
X130945625Y-98571182D01*
X130953256Y-98572637D01*
X131245140Y-98609511D01*
X131252899Y-98610000D01*
X131547101Y-98610000D01*
X131554859Y-98609511D01*
X131846743Y-98572637D01*
X131854374Y-98571182D01*
X132115195Y-98504214D01*
X146704621Y-98504214D01*
X146708311Y-98530667D01*
X146709500Y-98547798D01*
X146709500Y-99012422D01*
X146706756Y-99029243D01*
X146709368Y-99085744D01*
X146709500Y-99091470D01*
X146709500Y-99110484D01*
X146711181Y-99124973D01*
X146712415Y-99151659D01*
X146715213Y-99157996D01*
X146723666Y-99185292D01*
X146724938Y-99192100D01*
X146738997Y-99214806D01*
X146747002Y-99229993D01*
X146757792Y-99254429D01*
X146762688Y-99259325D01*
X146780434Y-99281729D01*
X146784081Y-99287618D01*
X146805396Y-99303714D01*
X146818351Y-99314988D01*
X148006884Y-100503521D01*
X148016841Y-100517358D01*
X148024375Y-100524226D01*
X148024376Y-100524228D01*
X148032591Y-100531717D01*
X148058650Y-100555474D01*
X148062791Y-100559429D01*
X148076222Y-100572860D01*
X148087662Y-100581922D01*
X148107399Y-100599915D01*
X148107400Y-100599915D01*
X148107401Y-100599916D01*
X148113674Y-100602346D01*
X148113857Y-100602417D01*
X148139144Y-100615745D01*
X148144853Y-100619656D01*
X148170848Y-100625769D01*
X148187244Y-100630846D01*
X148212161Y-100640500D01*
X148219085Y-100640500D01*
X148247474Y-100643793D01*
X148254215Y-100645379D01*
X148280667Y-100641688D01*
X148297799Y-100640500D01*
X148994722Y-100640500D01*
X149061761Y-100660185D01*
X149107516Y-100712989D01*
X149117460Y-100782147D01*
X149088435Y-100845703D01*
X149072447Y-100860766D01*
X148975463Y-100987159D01*
X148914956Y-101133237D01*
X148894317Y-101289999D01*
X148914956Y-101446762D01*
X148975463Y-101592840D01*
X149071717Y-101718282D01*
X149197159Y-101814535D01*
X149197159Y-101814536D01*
X149343238Y-101875044D01*
X149479361Y-101892964D01*
X149499999Y-101895682D01*
X149499999Y-101895681D01*
X149500000Y-101895682D01*
X149599061Y-101882640D01*
X149668095Y-101893405D01*
X149702927Y-101917898D01*
X150847628Y-103062599D01*
X150857585Y-103076436D01*
X150865119Y-103083304D01*
X150865120Y-103083306D01*
X150878507Y-103095510D01*
X150899394Y-103114552D01*
X150903535Y-103118507D01*
X150916965Y-103131937D01*
X150928400Y-103140994D01*
X150948145Y-103158994D01*
X150954599Y-103161494D01*
X150979883Y-103174821D01*
X150985597Y-103178735D01*
X151011603Y-103184851D01*
X151027995Y-103189927D01*
X151052905Y-103199578D01*
X151059830Y-103199578D01*
X151088220Y-103202872D01*
X151094959Y-103204457D01*
X151121410Y-103200767D01*
X151138542Y-103199578D01*
X158373245Y-103199578D01*
X158440284Y-103219263D01*
X158460926Y-103235897D01*
X166272101Y-111047072D01*
X166305586Y-111108395D01*
X166307359Y-111150938D01*
X166294317Y-111249999D01*
X166314956Y-111406762D01*
X166375463Y-111552840D01*
X166471717Y-111678282D01*
X166597159Y-111774535D01*
X166597159Y-111774536D01*
X166743238Y-111835044D01*
X166900000Y-111855682D01*
X167056762Y-111835044D01*
X167202841Y-111774536D01*
X167328282Y-111678282D01*
X167424536Y-111552841D01*
X167485044Y-111406762D01*
X167505682Y-111250000D01*
X167485044Y-111093238D01*
X167424536Y-110947159D01*
X167376873Y-110885043D01*
X167328282Y-110821717D01*
X167249014Y-110760893D01*
X167207811Y-110704465D01*
X167200500Y-110662517D01*
X167200500Y-110100911D01*
X167203243Y-110084090D01*
X167202772Y-110073903D01*
X167202773Y-110073901D01*
X167200632Y-110027585D01*
X167200500Y-110021860D01*
X167200500Y-110002843D01*
X167198817Y-109988346D01*
X167197585Y-109961674D01*
X167194786Y-109955336D01*
X167186332Y-109928033D01*
X167185061Y-109921233D01*
X167171002Y-109898526D01*
X167162995Y-109883336D01*
X167157865Y-109871718D01*
X167152206Y-109858901D01*
X167147309Y-109854004D01*
X167129563Y-109831599D01*
X167125919Y-109825714D01*
X167104602Y-109809616D01*
X167091648Y-109798343D01*
X165853305Y-108560000D01*
X178554317Y-108560000D01*
X178574956Y-108716762D01*
X178635463Y-108862840D01*
X178731717Y-108988282D01*
X178838897Y-109070523D01*
X178857159Y-109084536D01*
X179003238Y-109145044D01*
X179160000Y-109165682D01*
X179316762Y-109145044D01*
X179462841Y-109084536D01*
X179588282Y-108988282D01*
X179684536Y-108862841D01*
X179745044Y-108716762D01*
X179765682Y-108560000D01*
X179745044Y-108403238D01*
X179684536Y-108257159D01*
X179627355Y-108182639D01*
X179588282Y-108131717D01*
X179462840Y-108035463D01*
X179316762Y-107974956D01*
X179160000Y-107954317D01*
X179003237Y-107974956D01*
X178857159Y-108035463D01*
X178731717Y-108131717D01*
X178635463Y-108257159D01*
X178574956Y-108403237D01*
X178554317Y-108560000D01*
X165853305Y-108560000D01*
X164591326Y-107298021D01*
X164557841Y-107236698D01*
X164562825Y-107167006D01*
X164604697Y-107111073D01*
X164631549Y-107095781D01*
X164682841Y-107074536D01*
X164808282Y-106978282D01*
X164904536Y-106852841D01*
X164965044Y-106706762D01*
X164985682Y-106550000D01*
X164965044Y-106393238D01*
X164904536Y-106247159D01*
X164904536Y-106247158D01*
X164808282Y-106121717D01*
X164729014Y-106060893D01*
X164687811Y-106004465D01*
X164680500Y-105962517D01*
X164680500Y-105460911D01*
X164683243Y-105444090D01*
X164682772Y-105433903D01*
X164682773Y-105433901D01*
X164680632Y-105387585D01*
X164680500Y-105381860D01*
X164680500Y-105362843D01*
X164678817Y-105348346D01*
X164677585Y-105321674D01*
X164674786Y-105315336D01*
X164666332Y-105288033D01*
X164665061Y-105281233D01*
X164651002Y-105258526D01*
X164642995Y-105243336D01*
X164632206Y-105218901D01*
X164627309Y-105214004D01*
X164609563Y-105191599D01*
X164605919Y-105185714D01*
X164584602Y-105169616D01*
X164571648Y-105158343D01*
X162233305Y-102820000D01*
X170794317Y-102820000D01*
X170814956Y-102976762D01*
X170875463Y-103122840D01*
X170971717Y-103248282D01*
X171072705Y-103325772D01*
X171097159Y-103344536D01*
X171243238Y-103405044D01*
X171400000Y-103425682D01*
X171556762Y-103405044D01*
X171702841Y-103344536D01*
X171828282Y-103248282D01*
X171924536Y-103122841D01*
X171985044Y-102976762D01*
X172005682Y-102820000D01*
X171985044Y-102663238D01*
X171924536Y-102517159D01*
X171838118Y-102404536D01*
X171828282Y-102391717D01*
X171702840Y-102295463D01*
X171556762Y-102234956D01*
X171400000Y-102214317D01*
X171243237Y-102234956D01*
X171097159Y-102295463D01*
X170971717Y-102391717D01*
X170875463Y-102517159D01*
X170814956Y-102663237D01*
X170794317Y-102820000D01*
X162233305Y-102820000D01*
X161293305Y-101880000D01*
X174544317Y-101880000D01*
X174564956Y-102036762D01*
X174625463Y-102182840D01*
X174721717Y-102308282D01*
X174830453Y-102391717D01*
X174847159Y-102404536D01*
X174993238Y-102465044D01*
X175150000Y-102485682D01*
X175306762Y-102465044D01*
X175452841Y-102404536D01*
X175578282Y-102308282D01*
X175674536Y-102182841D01*
X175735044Y-102036762D01*
X175755682Y-101880000D01*
X175735044Y-101723238D01*
X175674536Y-101577159D01*
X175657566Y-101555043D01*
X175578282Y-101451717D01*
X175452840Y-101355463D01*
X175306762Y-101294956D01*
X175150000Y-101274317D01*
X174993237Y-101294956D01*
X174847159Y-101355463D01*
X174721717Y-101451717D01*
X174625463Y-101577159D01*
X174564956Y-101723237D01*
X174544317Y-101880000D01*
X161293305Y-101880000D01*
X158597199Y-99183894D01*
X176085500Y-99183894D01*
X176103972Y-99477500D01*
X176104946Y-99485220D01*
X176160073Y-99774206D01*
X176162009Y-99781745D01*
X176252921Y-100061541D01*
X176255781Y-100068765D01*
X176381050Y-100334976D01*
X176384792Y-100341782D01*
X176542430Y-100590181D01*
X176547006Y-100596479D01*
X176625312Y-100691134D01*
X177554210Y-99762235D01*
X177654894Y-99903624D01*
X177806932Y-100048592D01*
X177909222Y-100114329D01*
X176976564Y-101046986D01*
X177198320Y-101208102D01*
X177204891Y-101212272D01*
X177462694Y-101354000D01*
X177469733Y-101357313D01*
X177743270Y-101465613D01*
X177750665Y-101468016D01*
X178035625Y-101541182D01*
X178043256Y-101542637D01*
X178335140Y-101579511D01*
X178342899Y-101580000D01*
X178637101Y-101580000D01*
X178644859Y-101579511D01*
X178936743Y-101542637D01*
X178944374Y-101541182D01*
X179229334Y-101468016D01*
X179236729Y-101465613D01*
X179510266Y-101357313D01*
X179517305Y-101354000D01*
X179775108Y-101212272D01*
X179781678Y-101208102D01*
X180003433Y-101046986D01*
X180003434Y-101046986D01*
X179073306Y-100116859D01*
X179087410Y-100109589D01*
X179252540Y-99979729D01*
X179390110Y-99820965D01*
X179424665Y-99761112D01*
X180354686Y-100691133D01*
X180432997Y-100596474D01*
X180437568Y-100590182D01*
X180595207Y-100341782D01*
X180598949Y-100334976D01*
X180724218Y-100068765D01*
X180727078Y-100061541D01*
X180817990Y-99781745D01*
X180819926Y-99774206D01*
X180875053Y-99485220D01*
X180876027Y-99477500D01*
X180894500Y-99183894D01*
X180894500Y-99176105D01*
X180876027Y-98882499D01*
X180875053Y-98874779D01*
X180819926Y-98585793D01*
X180817990Y-98578254D01*
X180727078Y-98298458D01*
X180724218Y-98291234D01*
X180598949Y-98025023D01*
X180595207Y-98018217D01*
X180437569Y-97769818D01*
X180432993Y-97763520D01*
X180354686Y-97668864D01*
X179425787Y-98597762D01*
X179325106Y-98456376D01*
X179173068Y-98311408D01*
X179070776Y-98245669D01*
X180003434Y-97313012D01*
X179781679Y-97151897D01*
X179775108Y-97147727D01*
X179517305Y-97005999D01*
X179510266Y-97002686D01*
X179236729Y-96894386D01*
X179229334Y-96891983D01*
X178944374Y-96818817D01*
X178936743Y-96817362D01*
X178644859Y-96780488D01*
X178637101Y-96780000D01*
X178342899Y-96780000D01*
X178335140Y-96780488D01*
X178043256Y-96817362D01*
X178035625Y-96818817D01*
X177750665Y-96891983D01*
X177743270Y-96894386D01*
X177469733Y-97002686D01*
X177462694Y-97005999D01*
X177204899Y-97147723D01*
X177198309Y-97151905D01*
X176976565Y-97313011D01*
X176976564Y-97313012D01*
X177906693Y-98243140D01*
X177892590Y-98250411D01*
X177727460Y-98380271D01*
X177589890Y-98539035D01*
X177555334Y-98598886D01*
X176625312Y-97668864D01*
X176546995Y-97763534D01*
X176542434Y-97769812D01*
X176384792Y-98018217D01*
X176381050Y-98025023D01*
X176255781Y-98291234D01*
X176252921Y-98298458D01*
X176162009Y-98578254D01*
X176160073Y-98585793D01*
X176104946Y-98874779D01*
X176103972Y-98882499D01*
X176085500Y-99176105D01*
X176085500Y-99183894D01*
X158597199Y-99183894D01*
X157989784Y-98576479D01*
X157979831Y-98562645D01*
X157938015Y-98524524D01*
X157933874Y-98520569D01*
X157920444Y-98507139D01*
X157909012Y-98498083D01*
X157889268Y-98480084D01*
X157882802Y-98477579D01*
X157857526Y-98464256D01*
X157851815Y-98460344D01*
X157851814Y-98460343D01*
X157851812Y-98460342D01*
X157825818Y-98454228D01*
X157809421Y-98449151D01*
X157784507Y-98439500D01*
X157777583Y-98439500D01*
X157749193Y-98436206D01*
X157742453Y-98434621D01*
X157742452Y-98434621D01*
X157731091Y-98436206D01*
X157716000Y-98438311D01*
X157698869Y-98439500D01*
X150125833Y-98439500D01*
X150058794Y-98419815D01*
X150038152Y-98403181D01*
X149827898Y-98192927D01*
X149794413Y-98131604D01*
X149792640Y-98089063D01*
X149805682Y-97990000D01*
X149785044Y-97833238D01*
X149724536Y-97687159D01*
X149673143Y-97620182D01*
X149628282Y-97561717D01*
X149502840Y-97465463D01*
X149393082Y-97420000D01*
X151174317Y-97420000D01*
X151194956Y-97576762D01*
X151255463Y-97722840D01*
X151351717Y-97848282D01*
X151477159Y-97944535D01*
X151477159Y-97944536D01*
X151623238Y-98005044D01*
X151780000Y-98025682D01*
X151936762Y-98005044D01*
X152082841Y-97944536D01*
X152208282Y-97848282D01*
X152304536Y-97722841D01*
X152365044Y-97576762D01*
X152385682Y-97420000D01*
X152365044Y-97263238D01*
X152304536Y-97117159D01*
X152227499Y-97016762D01*
X152208282Y-96991717D01*
X152082840Y-96895463D01*
X151997224Y-96860000D01*
X165394317Y-96860000D01*
X165414956Y-97016762D01*
X165475463Y-97162840D01*
X165571717Y-97288282D01*
X165696874Y-97384317D01*
X165697159Y-97384536D01*
X165843238Y-97445044D01*
X166000000Y-97465682D01*
X166156762Y-97445044D01*
X166302841Y-97384536D01*
X166428282Y-97288282D01*
X166524536Y-97162841D01*
X166585044Y-97016762D01*
X166605682Y-96860000D01*
X166585044Y-96703238D01*
X166524536Y-96557159D01*
X166492355Y-96515220D01*
X166428282Y-96431717D01*
X166302840Y-96335463D01*
X166156762Y-96274956D01*
X166000000Y-96254317D01*
X165843237Y-96274956D01*
X165697159Y-96335463D01*
X165571717Y-96431717D01*
X165475463Y-96557159D01*
X165414956Y-96703237D01*
X165394317Y-96860000D01*
X151997224Y-96860000D01*
X151936762Y-96834956D01*
X151780000Y-96814317D01*
X151623237Y-96834956D01*
X151477159Y-96895463D01*
X151351717Y-96991717D01*
X151255463Y-97117159D01*
X151194956Y-97263237D01*
X151174317Y-97420000D01*
X149393082Y-97420000D01*
X149356762Y-97404956D01*
X149200000Y-97384317D01*
X149043237Y-97404956D01*
X148897159Y-97465463D01*
X148771717Y-97561717D01*
X148675463Y-97687159D01*
X148614956Y-97833237D01*
X148594317Y-97989999D01*
X148614956Y-98146762D01*
X148675463Y-98292840D01*
X148771717Y-98418282D01*
X148875717Y-98498083D01*
X148897159Y-98514536D01*
X149043238Y-98575044D01*
X149179360Y-98592964D01*
X149199999Y-98595682D01*
X149199999Y-98595681D01*
X149200000Y-98595682D01*
X149299061Y-98582640D01*
X149368095Y-98593405D01*
X149402927Y-98617898D01*
X149688550Y-98903521D01*
X149698507Y-98917358D01*
X149706041Y-98924226D01*
X149706042Y-98924228D01*
X149714776Y-98932190D01*
X149740316Y-98955474D01*
X149744457Y-98959429D01*
X149757888Y-98972860D01*
X149769328Y-98981922D01*
X149789065Y-98999915D01*
X149789066Y-98999915D01*
X149789067Y-98999916D01*
X149795340Y-99002346D01*
X149795523Y-99002417D01*
X149820810Y-99015745D01*
X149826519Y-99019656D01*
X149852514Y-99025769D01*
X149868910Y-99030846D01*
X149893827Y-99040500D01*
X149900751Y-99040500D01*
X149929140Y-99043793D01*
X149935881Y-99045379D01*
X149962333Y-99041688D01*
X149979465Y-99040500D01*
X154042344Y-99040500D01*
X154109383Y-99060185D01*
X154155138Y-99112989D01*
X154165082Y-99182147D01*
X154140720Y-99239986D01*
X154035463Y-99377159D01*
X153974956Y-99523237D01*
X153954317Y-99680000D01*
X153967359Y-99779060D01*
X153956593Y-99848095D01*
X153932101Y-99882926D01*
X153811846Y-100003182D01*
X153750526Y-100036666D01*
X153724167Y-100039500D01*
X148444167Y-100039500D01*
X148377128Y-100019815D01*
X148356486Y-100003181D01*
X147346819Y-98993513D01*
X147313334Y-98932190D01*
X147310500Y-98905832D01*
X147310500Y-98694166D01*
X147330185Y-98627127D01*
X147346814Y-98606490D01*
X149466485Y-96486819D01*
X149527809Y-96453334D01*
X149554167Y-96450500D01*
X154332518Y-96450500D01*
X154399557Y-96470185D01*
X154430892Y-96499013D01*
X154491718Y-96578282D01*
X154617159Y-96674536D01*
X154763238Y-96735044D01*
X154920000Y-96755682D01*
X155076762Y-96735044D01*
X155222841Y-96674536D01*
X155348282Y-96578282D01*
X155444536Y-96452841D01*
X155505044Y-96306762D01*
X155525682Y-96150000D01*
X155505044Y-95993238D01*
X155444536Y-95847159D01*
X155418851Y-95813685D01*
X155348282Y-95721717D01*
X155222840Y-95625463D01*
X155076762Y-95564956D01*
X154920000Y-95544317D01*
X154763237Y-95564956D01*
X154617159Y-95625463D01*
X154491718Y-95721717D01*
X154430894Y-95800986D01*
X154374467Y-95842189D01*
X154332518Y-95849500D01*
X149447577Y-95849500D01*
X149430756Y-95846756D01*
X149409839Y-95847723D01*
X149374253Y-95849368D01*
X149368529Y-95849500D01*
X149349517Y-95849500D01*
X149335029Y-95851181D01*
X149308341Y-95852415D01*
X149302000Y-95855215D01*
X149274712Y-95863665D01*
X149267902Y-95864938D01*
X149245193Y-95878998D01*
X149230011Y-95887000D01*
X149205567Y-95897794D01*
X149200667Y-95902694D01*
X149178277Y-95920429D01*
X149172382Y-95924079D01*
X149156284Y-95945396D01*
X149145013Y-95958348D01*
X146846475Y-98256886D01*
X146832639Y-98266842D01*
X146794523Y-98308652D01*
X146790573Y-98312788D01*
X146777141Y-98326220D01*
X146768087Y-98337651D01*
X146750083Y-98357401D01*
X146747578Y-98363868D01*
X146734259Y-98389136D01*
X146730343Y-98394852D01*
X146724228Y-98420851D01*
X146719151Y-98437247D01*
X146709500Y-98462160D01*
X146709500Y-98469086D01*
X146706206Y-98497476D01*
X146704621Y-98504214D01*
X132115195Y-98504214D01*
X132139334Y-98498016D01*
X132146729Y-98495613D01*
X132420266Y-98387313D01*
X132427305Y-98384000D01*
X132685108Y-98242272D01*
X132691678Y-98238102D01*
X132913433Y-98076986D01*
X132913434Y-98076986D01*
X131983306Y-97146859D01*
X131997410Y-97139589D01*
X132162540Y-97009729D01*
X132300110Y-96850965D01*
X132334665Y-96791112D01*
X133264686Y-97721133D01*
X133342997Y-97626474D01*
X133347568Y-97620182D01*
X133505207Y-97371782D01*
X133508949Y-97364976D01*
X133634218Y-97098765D01*
X133637078Y-97091541D01*
X133727990Y-96811745D01*
X133729926Y-96804206D01*
X133785053Y-96515220D01*
X133786027Y-96507500D01*
X133804500Y-96213894D01*
X133804500Y-96206105D01*
X133786027Y-95912499D01*
X133785053Y-95904779D01*
X133729926Y-95615793D01*
X133727990Y-95608254D01*
X133637078Y-95328458D01*
X133634218Y-95321234D01*
X133508949Y-95055023D01*
X133505207Y-95048217D01*
X133347569Y-94799818D01*
X133342993Y-94793520D01*
X133264686Y-94698864D01*
X132335787Y-95627762D01*
X132235106Y-95486376D01*
X132083068Y-95341408D01*
X131980776Y-95275669D01*
X132913434Y-94343012D01*
X132691679Y-94181897D01*
X132685108Y-94177727D01*
X132427305Y-94035999D01*
X132420266Y-94032686D01*
X132146729Y-93924386D01*
X132139334Y-93921983D01*
X131854374Y-93848817D01*
X131846743Y-93847362D01*
X131554859Y-93810488D01*
X131547101Y-93810000D01*
X131252899Y-93810000D01*
X131245140Y-93810488D01*
X130953256Y-93847362D01*
X130945625Y-93848817D01*
X130660665Y-93921983D01*
X130653270Y-93924386D01*
X130468928Y-93997372D01*
X130399350Y-94003749D01*
X130337370Y-93971496D01*
X130302666Y-93910855D01*
X130306256Y-93841077D01*
X130335598Y-93794401D01*
X131513680Y-92616319D01*
X131575004Y-92582834D01*
X131601362Y-92580000D01*
X178168638Y-92580000D01*
X178235677Y-92599685D01*
G37*
%TD.AperFunction*%
%TD*%
M02*
