%TF.GenerationSoftware,KiCad,Pcbnew,7.0.2*%
%TF.CreationDate,2023-05-16T00:14:24-03:00*%
%TF.ProjectId,fullWirelessComTractian,66756c6c-5769-4726-956c-657373436f6d,rev?*%
%TF.SameCoordinates,Original*%
%TF.FileFunction,Paste,Top*%
%TF.FilePolarity,Positive*%
%FSLAX46Y46*%
G04 Gerber Fmt 4.6, Leading zero omitted, Abs format (unit mm)*
G04 Created by KiCad (PCBNEW 7.0.2) date 2023-05-16 00:14:24*
%MOMM*%
%LPD*%
G01*
G04 APERTURE LIST*
G04 Aperture macros list*
%AMRoundRect*
0 Rectangle with rounded corners*
0 $1 Rounding radius*
0 $2 $3 $4 $5 $6 $7 $8 $9 X,Y pos of 4 corners*
0 Add a 4 corners polygon primitive as box body*
4,1,4,$2,$3,$4,$5,$6,$7,$8,$9,$2,$3,0*
0 Add four circle primitives for the rounded corners*
1,1,$1+$1,$2,$3*
1,1,$1+$1,$4,$5*
1,1,$1+$1,$6,$7*
1,1,$1+$1,$8,$9*
0 Add four rect primitives between the rounded corners*
20,1,$1+$1,$2,$3,$4,$5,0*
20,1,$1+$1,$4,$5,$6,$7,0*
20,1,$1+$1,$6,$7,$8,$9,0*
20,1,$1+$1,$8,$9,$2,$3,0*%
G04 Aperture macros list end*
%ADD10RoundRect,0.237500X-0.237500X0.287500X-0.237500X-0.287500X0.237500X-0.287500X0.237500X0.287500X0*%
%ADD11RoundRect,0.090000X0.090000X-0.139000X0.090000X0.139000X-0.090000X0.139000X-0.090000X-0.139000X0*%
%ADD12RoundRect,0.160000X-0.160000X0.197500X-0.160000X-0.197500X0.160000X-0.197500X0.160000X0.197500X0*%
%ADD13RoundRect,0.232500X-0.232500X0.232500X-0.232500X-0.232500X0.232500X-0.232500X0.232500X0.232500X0*%
%ADD14RoundRect,0.062500X-0.062500X0.375000X-0.062500X-0.375000X0.062500X-0.375000X0.062500X0.375000X0*%
%ADD15RoundRect,0.062500X-0.375000X0.062500X-0.375000X-0.062500X0.375000X-0.062500X0.375000X0.062500X0*%
%ADD16RoundRect,0.090000X0.139000X0.090000X-0.139000X0.090000X-0.139000X-0.090000X0.139000X-0.090000X0*%
%ADD17RoundRect,0.090000X-0.139000X-0.090000X0.139000X-0.090000X0.139000X0.090000X-0.139000X0.090000X0*%
%ADD18RoundRect,0.150000X-0.650000X-0.150000X0.650000X-0.150000X0.650000X0.150000X-0.650000X0.150000X0*%
%ADD19RoundRect,0.160000X0.197500X0.160000X-0.197500X0.160000X-0.197500X-0.160000X0.197500X-0.160000X0*%
%ADD20R,2.000000X1.500000*%
%ADD21R,2.000000X3.800000*%
%ADD22RoundRect,0.150000X-0.150000X0.650000X-0.150000X-0.650000X0.150000X-0.650000X0.150000X0.650000X0*%
%ADD23RoundRect,0.250000X0.275000X-0.375000X0.275000X0.375000X-0.275000X0.375000X-0.275000X-0.375000X0*%
%ADD24RoundRect,0.237500X-0.287500X-0.237500X0.287500X-0.237500X0.287500X0.237500X-0.287500X0.237500X0*%
%ADD25RoundRect,0.090000X-0.090000X0.139000X-0.090000X-0.139000X0.090000X-0.139000X0.090000X0.139000X0*%
%ADD26RoundRect,0.150000X0.150000X-0.825000X0.150000X0.825000X-0.150000X0.825000X-0.150000X-0.825000X0*%
%ADD27R,1.650000X1.350000*%
G04 APERTURE END LIST*
D10*
%TO.C,L2*%
X156500000Y-95614000D03*
X156500000Y-97364000D03*
%TD*%
D11*
%TO.C,R6*%
X147670000Y-100632500D03*
X147670000Y-99767500D03*
%TD*%
D12*
%TO.C,R4*%
X158420000Y-113642500D03*
X158420000Y-114837500D03*
%TD*%
D13*
%TO.C,U1*%
X152940000Y-103720000D03*
X151790000Y-103720000D03*
X150640000Y-103720000D03*
X152940000Y-104870000D03*
X151790000Y-104870000D03*
X150640000Y-104870000D03*
X152940000Y-106020000D03*
X151790000Y-106020000D03*
X150640000Y-106020000D03*
D14*
X153540000Y-102432500D03*
X153040000Y-102432500D03*
X152540000Y-102432500D03*
X152040000Y-102432500D03*
X151540000Y-102432500D03*
X151040000Y-102432500D03*
X150540000Y-102432500D03*
X150040000Y-102432500D03*
D15*
X149352500Y-103120000D03*
X149352500Y-103620000D03*
X149352500Y-104120000D03*
X149352500Y-104620000D03*
X149352500Y-105120000D03*
X149352500Y-105620000D03*
X149352500Y-106120000D03*
X149352500Y-106620000D03*
D14*
X150040000Y-107307500D03*
X150540000Y-107307500D03*
X151040000Y-107307500D03*
X151540000Y-107307500D03*
X152040000Y-107307500D03*
X152540000Y-107307500D03*
X153040000Y-107307500D03*
X153540000Y-107307500D03*
D15*
X154227500Y-106620000D03*
X154227500Y-106120000D03*
X154227500Y-105620000D03*
X154227500Y-105120000D03*
X154227500Y-104620000D03*
X154227500Y-104120000D03*
X154227500Y-103620000D03*
X154227500Y-103120000D03*
%TD*%
D11*
%TO.C,C7*%
X165380000Y-113370000D03*
X165380000Y-112505000D03*
%TD*%
D16*
%TO.C,C8*%
X153382500Y-99700000D03*
X152517500Y-99700000D03*
%TD*%
D11*
%TO.C,C9*%
X168380000Y-113362500D03*
X168380000Y-112497500D03*
%TD*%
D17*
%TO.C,C12*%
X156767500Y-94306500D03*
X157632500Y-94306500D03*
%TD*%
%TO.C,C13*%
X156775000Y-98814000D03*
X157640000Y-98814000D03*
%TD*%
%TO.C,R2*%
X155445000Y-103610000D03*
X156310000Y-103610000D03*
%TD*%
D18*
%TO.C,U4*%
X148630000Y-111735000D03*
X148630000Y-113005000D03*
X148630000Y-114275000D03*
X148630000Y-115545000D03*
X155830000Y-115545000D03*
X155830000Y-114275000D03*
X155830000Y-113005000D03*
X155830000Y-111735000D03*
%TD*%
D11*
%TO.C,C6*%
X164080000Y-113370000D03*
X164080000Y-112505000D03*
%TD*%
D17*
%TO.C,C4*%
X158047500Y-109010000D03*
X158912500Y-109010000D03*
%TD*%
D11*
%TO.C,R3*%
X166980000Y-113362500D03*
X166980000Y-112497500D03*
%TD*%
D19*
%TO.C,R1*%
X138452500Y-110240000D03*
X137257500Y-110240000D03*
%TD*%
D11*
%TO.C,C10*%
X169780000Y-113362500D03*
X169780000Y-112497500D03*
%TD*%
D20*
%TO.C,U5*%
X172780000Y-110630000D03*
X172780000Y-112930000D03*
D21*
X179080000Y-112930000D03*
D20*
X172780000Y-115230000D03*
%TD*%
D16*
%TO.C,C5*%
X153382500Y-101000000D03*
X152517500Y-101000000D03*
%TD*%
D22*
%TO.C,U2*%
X139210000Y-100440000D03*
X137940000Y-100440000D03*
X136670000Y-100440000D03*
X135400000Y-100440000D03*
X135400000Y-107640000D03*
X136670000Y-107640000D03*
X137940000Y-107640000D03*
X139210000Y-107640000D03*
%TD*%
D23*
%TO.C,C2*%
X173270000Y-101880000D03*
X173270000Y-100280000D03*
%TD*%
D24*
%TO.C,L1*%
X153135000Y-97420000D03*
X154885000Y-97420000D03*
%TD*%
D25*
%TO.C,C11*%
X161190000Y-105907500D03*
X161190000Y-106772500D03*
%TD*%
D11*
%TO.C,C1*%
X171330000Y-101552500D03*
X171330000Y-100687500D03*
%TD*%
D26*
%TO.C,U6*%
X166005000Y-103775000D03*
X167275000Y-103775000D03*
X168545000Y-103775000D03*
X169815000Y-103775000D03*
X169815000Y-98825000D03*
X168545000Y-98825000D03*
X167275000Y-98825000D03*
X166005000Y-98825000D03*
%TD*%
D27*
%TO.C,Y2*%
X159365000Y-105865000D03*
X157115000Y-105865000D03*
X157115000Y-107615000D03*
X159365000Y-107615000D03*
%TD*%
D25*
%TO.C,R5*%
X148690000Y-99787500D03*
X148690000Y-100652500D03*
%TD*%
M02*
